<svg width="1024" height="1024" viewBox="0 0 1024 1024" fill="none" xmlns="http://www.w3.org/2000/svg">
<path d="M434.631 151.981C463.823 139.739 482.185 188.235 482.185 188.235C482.185 188.235 500.535 154.799 530.782 156.989C535.437 157.326 539.945 159.189 543.288 162.445C558.051 176.829 540.346 192.008 533.506 196.71C525.973 201.889 505.256 217.427 489.248 249.915C485.304 257.919 482.748 270.901 472.769 269.69C462.789 268.478 464.294 255.094 462.41 245.206C460.527 235.319 459.115 220.252 442.164 195.769C437.456 189.648 405.439 164.223 434.631 151.981Z" fill="#36B5FF"/>
<path d="M290.085 176.464C297.147 177.406 296.711 190.378 303.739 197.652C310.767 204.926 323.985 204.244 323.985 211.777C323.985 219.31 313.26 218.657 305.151 225.902C297.043 233.147 298.56 248.031 290.085 248.031C281.61 248.031 283.286 232.446 275.489 225.902C267.691 219.358 254.772 218.84 254.772 211.777C254.772 204.714 266.562 205.413 274.076 198.123C281.59 190.833 283.022 175.523 290.085 176.464Z" fill="#FFDB62"/>
<circle cx="222.285" cy="265.452" r="10.8292" fill="#36B5FF"/>
<circle cx="575.411" cy="235.319" r="13.6542" fill="#36B5FF"/>
</svg>
