<svg width="1024" height="1024" viewBox="0 0 1024 1024" fill="none" xmlns="http://www.w3.org/2000/svg">
<path d="M405.284 643.396C407.386 637.696 413.711 634.779 419.411 636.881C425.111 638.982 428.028 645.308 425.926 651.007C412.097 688.511 411.345 706.462 413.761 714.891C414.803 718.529 416.42 720.319 418.115 721.536C420.162 723.006 422.827 724.008 426.75 725.176C433.523 727.194 439.995 727.672 445.9 722.34C452.848 716.065 461.658 699.651 464.907 659.037C465.392 652.981 470.693 648.465 476.749 648.949C482.805 649.433 487.321 654.736 486.837 660.792C483.494 702.573 474.177 726.446 460.645 738.667C446.068 751.829 429.704 749.011 420.469 746.26C416.388 745.045 410.578 743.207 405.282 739.404C399.635 735.348 395.042 729.431 392.612 720.953C388.083 705.149 391.335 681.226 405.284 643.396ZM362.071 636.127C363.507 630.224 369.457 626.603 375.359 628.039C381.262 629.475 384.883 635.424 383.447 641.327C380.339 654.106 378.201 665.757 376.056 676.453C373.972 686.841 371.809 696.75 368.63 704.799C365.443 712.868 360.56 720.849 351.89 725.221C343.196 729.605 333.186 729.116 322.601 726.034C316.768 724.336 313.416 718.231 315.114 712.398C316.813 706.565 322.918 703.213 328.751 704.911C336.763 707.243 340.349 706.401 341.984 705.577C343.643 704.74 345.823 702.656 348.168 696.718C350.521 690.761 352.36 682.72 354.484 672.127C356.547 661.841 358.824 649.479 362.071 636.127ZM246.813 608.179C251.269 606.739 255.789 607.089 259.941 608.685C265.962 611.001 268.725 616.521 269.976 619.503C271.474 623.076 272.51 627.311 273.316 631.456C274.917 639.697 276.108 650.459 277.427 660.136C278.811 670.295 280.372 679.638 282.676 686.73C283.216 688.394 283.761 689.814 284.297 691.011C285.91 686.836 287.505 681.141 289.02 674.375C292.919 656.956 295.246 638.035 297.444 626.337C298.567 620.366 304.317 616.435 310.287 617.557C316.258 618.68 320.188 624.43 319.066 630.4C317.341 639.576 314.375 661.815 310.488 679.18C308.511 688.014 306.034 696.965 302.804 703.614C301.231 706.852 298.998 710.579 295.731 713.325C292 716.461 286.469 718.55 280.293 716.492C274.676 714.62 270.703 710.72 267.947 706.733C265.211 702.774 263.247 698.127 261.752 693.527C258.774 684.361 257.01 673.252 255.628 663.106C254.18 652.479 253.164 643.083 251.72 635.654C251.558 634.824 251.396 634.055 251.237 633.345C250.274 635.344 249.215 637.98 248.092 641.354C246.009 647.614 244.099 655.123 242.048 663.392C240.038 671.496 237.903 680.293 235.457 688.486C233.719 694.307 227.592 697.617 221.771 695.88C215.949 694.142 212.639 688.014 214.377 682.193C216.64 674.614 218.632 666.413 220.694 658.097C222.715 649.947 224.82 641.613 227.218 634.407C229.52 627.489 232.535 620.172 236.996 614.98C239.344 612.248 242.552 609.557 246.813 608.179Z" fill="white"/>
</svg>
